<?xml version="1.0" encoding="UTF-8" standalone="no"?>
<svg
   viewBox="0 0 189932.91 187695.7"
   version="1.1"
   id="svg1"
   sodipodi:docname="bars-solid.svg"
   width="189932.91"
   height="187695.7"
   xmlns:inkscape="http://www.inkscape.org/namespaces/inkscape"
   xmlns:sodipodi="http://sodipodi.sourceforge.net/DTD/sodipodi-0.dtd"
   xmlns="http://www.w3.org/2000/svg"
   xmlns:svg="http://www.w3.org/2000/svg">
  <defs
     id="defs1" />
  <sodipodi:namedview
     id="namedview1"
     pagecolor="#ffffff"
     bordercolor="#000000"
     borderopacity="0.25"
     inkscape:showpageshadow="2"
     inkscape:pageopacity="0.0"
     inkscape:pagecheckerboard="0"
     inkscape:deskcolor="#d1d1d1" />
  <!--!Font Awesome Free 6.6.0 by @fontawesome - https://fontawesome.com License - https://fontawesome.com/license/free Copyright 2024 Fonticons, Inc.-->
  <path
     fill="#ffffff"
     d="m -4436.7448,-39342.279 c 0,-15.865 12.8173,-28.683 28.6821,-28.683 h 344.1853 c 15.8648,0 28.6821,12.818 28.6821,28.683 0,15.864 -12.8173,28.682 -28.6821,28.682 h -344.1853 c -15.8648,0 -28.6821,-12.818 -28.6821,-28.682 z m 0,143.41 c 0,-15.865 12.8173,-28.682 28.6821,-28.682 h 344.1853 c 15.8648,0 28.6821,12.817 28.6821,28.682 0,15.865 -12.8173,28.682 -28.6821,28.682 h -344.1853 c -15.8648,0 -28.6821,-12.817 -28.6821,-28.682 z m 401.5495,143.411 c 0,15.864 -12.8173,28.682 -28.6821,28.682 h -344.1853 c -15.8648,0 -28.6821,-12.818 -28.6821,-28.682 0,-15.865 12.8173,-28.683 28.6821,-28.683 h 344.1853 c 15.8648,0 28.6821,12.818 28.6821,28.683 z"
     id="path1"
     style="stroke:#000000;stroke-width:22.4079;stroke-dasharray:none;stroke-opacity:1" />
</svg>
